<svg width="157" height="157" viewBox="0 0 157 157" fill="none" xmlns="http://www.w3.org/2000/svg">
<g filter="url(#filter0_d_90_314)">
<path d="M11 74.3316C11.3347 71.8597 11.5507 69.3664 12.0284 66.9219C16.6959 43.0121 30.1566 25.8606 52.4898 16.3503C86.8141 1.7317 126.521 18.1251 140.624 52.6716C149.551 74.5356 147.235 95.6811 134.611 115.658C132.883 118.391 129.74 119.119 127.196 117.496C124.668 115.883 124.014 112.696 125.766 109.995C130.266 103.06 133.367 95.5746 134.569 87.3764C137.079 70.2584 132.816 54.967 121.704 41.7426C112.567 30.8685 100.826 24.1772 86.7532 22.308C65.6493 19.5042 47.9927 26.4117 34.3251 42.7442C25.1119 53.7554 20.7152 66.7514 21.6706 81.0625C23.2589 104.857 35.2074 121.917 57.1694 131.18C74.327 138.417 91.2898 136.663 107.474 127.485C110.124 125.981 112.765 126.264 114.518 128.285C116.173 130.194 116.304 132.983 114.731 134.949C114.225 135.582 113.532 136.115 112.832 136.532C103.865 141.863 94.1804 144.947 83.7775 145.769C83.3941 145.799 83.0168 145.921 82.6365 146H74.2083C73.8706 145.924 73.5359 145.83 73.1951 145.781C70.0338 145.315 66.8329 145.032 63.7111 144.374C37.5655 138.861 16.3764 116.662 12.0375 90.3019C11.6268 87.7995 11.3438 85.2758 11 82.7643C11 79.9514 11 77.1415 11 74.3316Z" fill="white"/>
</g>
<path d="M42 47.3221C42.3111 46.4598 42.9061 45.9943 43.8628 46.0001C48.8094 46.0344 53.7424 46.2309 58.6113 47.1828C61.7204 47.7894 64.7149 48.7146 67.5265 50.1931C72.4401 52.7779 74.8473 56.887 75.104 62.2456C75.1856 63.953 74.9737 65.6813 74.8181 67.3925C74.7404 68.2471 74.2212 68.7412 73.5212 68.8614C72.7259 68.9987 72.1251 68.6916 71.709 68.0354C70.0932 65.4944 68.3237 63.0468 66.0157 61.082C63.906 59.283 61.6252 57.6768 59.3891 56.0229C58.7805 55.5727 57.8821 55.7501 57.3785 56.2842C56.8438 56.8508 56.7757 57.7226 57.2871 58.3292C57.5846 58.6821 57.956 58.9969 58.3468 59.2506C66.7351 64.7351 71.8529 72.5298 74.7384 81.8277C75.7165 84.9791 76.3134 88.245 77.0853 91.4594C77.134 91.6616 77.1767 91.8658 77.2623 92.2511C77.5714 91.2687 77.8164 90.4465 78.0848 89.6338C80.2295 83.1669 83.5972 77.4325 88.643 72.7091C91.7114 69.8362 95.2191 67.5966 99.0205 65.771C99.5299 65.5268 100.034 65.0594 100.292 64.5691C100.592 64.0045 100.345 63.3597 99.806 62.9496C99.1935 62.4822 98.4819 62.3963 97.7974 62.776C95.8763 63.8385 93.9222 64.8553 92.0789 66.0361C89.3994 67.7511 87.0758 69.8896 84.9758 72.2589C84.4606 72.8407 83.8617 73.2146 83.0373 72.9457C82.3936 72.7377 81.9581 72.3085 81.9134 71.6408C81.6081 67.2513 82.2984 63.1155 85.4056 59.7008C87.1439 57.7893 89.3703 56.5341 91.76 55.5536C95.8355 53.8806 100.123 53.1156 104.498 52.8008C107.269 52.6005 110.049 52.5376 112.826 52.4441C114.424 52.3907 115.011 52.9954 115 54.5826C114.957 59.8572 114.689 65.1109 113.444 70.2692C112.684 73.4149 111.547 76.4042 109.672 79.1055C107.372 82.421 104.115 84.1855 100.164 84.7693C96.4577 85.3168 92.8061 85.0268 89.345 83.5236C88.0811 82.9742 86.9261 82.1787 85.6136 81.4347C85.0283 82.4629 84.3322 83.5885 83.7314 84.7617C81.1842 89.7235 79.7045 95.0058 79.0881 100.507C78.7692 103.352 78.6701 106.219 78.4931 109.079C78.4114 110.395 77.7192 111.118 76.5915 110.984C75.8992 110.902 75.3509 110.429 75.2342 109.748C75.1604 109.313 75.1448 108.869 75.1254 108.426C74.9717 105.145 74.9387 101.852 74.649 98.5826C73.9898 91.1714 72.549 83.9242 69.3776 77.0967C69.2882 76.9059 69.2007 76.7152 69.1073 76.5282C69.0879 76.4882 69.0471 76.4576 69.1171 76.5359C67.3515 77.0929 65.6754 77.7892 63.9293 78.1402C59.7507 78.9796 55.6557 78.6724 51.8058 76.698C49.0797 75.2997 47.3277 73.0048 45.9569 70.3932C44.1428 66.9518 43.2289 63.2452 42.7369 59.4414C42.4317 57.0873 42.3189 54.7085 42.1147 52.3411C42.0953 52.1122 42.0389 51.8852 42 51.6582V47.3221Z" fill="#1D39DD"/>
<defs>
<filter id="filter0_d_90_314" x="0" y="0" width="157" height="157" filterUnits="userSpaceOnUse" color-interpolation-filters="sRGB">
<feFlood flood-opacity="0" result="BackgroundImageFix"/>
<feColorMatrix in="SourceAlpha" type="matrix" values="0 0 0 0 0 0 0 0 0 0 0 0 0 0 0 0 0 0 127 0" result="hardAlpha"/>
<feOffset/>
<feGaussianBlur stdDeviation="5.5"/>
<feComposite in2="hardAlpha" operator="out"/>
<feColorMatrix type="matrix" values="0 0 0 0 0.113725 0 0 0 0 0.223529 0 0 0 0 0.866667 0 0 0 0.15 0"/>
<feBlend mode="normal" in2="BackgroundImageFix" result="effect1_dropShadow_90_314"/>
<feBlend mode="normal" in="SourceGraphic" in2="effect1_dropShadow_90_314" result="shape"/>
</filter>
</defs>
</svg>
