<svg width="157" height="157" viewBox="0 0 157 157" fill="none" xmlns="http://www.w3.org/2000/svg">
<g filter="url(#filter0_d_553_2)">
<path d="M11 74.3316C11.3347 71.8597 11.5507 69.3664 12.0284 66.9219C16.6959 43.0121 30.1566 25.8606 52.4898 16.3503C86.8141 1.7317 126.521 18.1251 140.624 52.6716C149.551 74.5356 147.235 95.6811 134.611 115.658C132.883 118.391 129.74 119.119 127.196 117.496C124.668 115.883 124.014 112.696 125.766 109.995C130.266 103.06 133.367 95.5746 134.569 87.3764C137.079 70.2584 132.816 54.967 121.704 41.7426C112.567 30.8685 100.826 24.1772 86.7532 22.308C65.6493 19.5042 47.9927 26.4117 34.3251 42.7442C25.1119 53.7554 20.7152 66.7514 21.6706 81.0625C23.2589 104.857 35.2074 121.917 57.1694 131.18C74.327 138.417 91.2898 136.663 107.474 127.485C110.124 125.981 112.765 126.264 114.518 128.285C116.173 130.194 116.304 132.983 114.731 134.949C114.225 135.582 113.532 136.115 112.832 136.532C103.865 141.863 94.1804 144.947 83.7775 145.769C83.3941 145.799 83.0168 145.921 82.6365 146H74.2083C73.8706 145.924 73.5359 145.83 73.1951 145.781C70.0338 145.315 66.8329 145.032 63.7111 144.374C37.5655 138.861 16.3764 116.662 12.0375 90.3019C11.6268 87.7995 11.3438 85.2758 11 82.7643C11 79.9514 11 77.1415 11 74.3316Z" fill="white"/>
</g>
<path d="M48 72.6604C48.2157 72.6531 48.4299 72.6385 48.6455 72.6385C65.3421 72.6385 82.0386 72.6385 98.7351 72.6385H99.4666C100.028 77.6702 100.581 82.6451 101.148 87.7249C100.901 87.7249 100.678 87.7249 100.456 87.7249C94.9683 87.7249 89.4819 87.7249 83.9941 87.7293C83.7042 87.7293 83.3996 87.7409 83.1257 87.8269C82.6404 87.9784 82.4087 88.3558 82.4306 88.8615C82.4524 89.3686 82.7206 89.7154 83.2175 89.8262C83.5002 89.8888 83.8003 89.8932 84.0932 89.8932C89.581 89.8961 95.0674 89.8961 100.555 89.8961C100.807 89.8961 101.059 89.8961 101.38 89.8961C101.499 90.9147 101.62 91.8997 101.73 92.8848C102.117 96.369 102.496 99.8531 102.89 103.337C103.027 104.553 102.642 105 101.405 105C85.2561 105 69.1089 105 52.9603 105C51.914 105 51.557 104.711 51.4448 103.704C50.9421 99.209 50.4525 94.7121 49.9585 90.2152C49.9497 90.1409 49.9585 90.0651 49.9585 89.8976H50.6536C55.6503 89.8976 60.6484 89.8976 65.6452 89.8946C65.9177 89.8946 66.1974 89.8859 66.4626 89.8305C66.9654 89.7256 67.2437 89.3773 67.2743 88.8804C67.3064 88.3558 67.0543 87.9653 66.537 87.8152C66.279 87.7409 65.9963 87.7278 65.7253 87.7278C60.6295 87.7234 55.5352 87.7249 50.4393 87.7249C50.2062 87.7249 49.9745 87.7249 49.6845 87.7249C49.5534 86.5897 49.4222 85.4881 49.3013 84.3864C48.8991 80.7464 48.5013 77.1063 48.0991 73.4662C48.086 73.3526 48.035 73.2433 48.0015 73.1325C48.0015 72.9752 48.0015 72.8192 48.0015 72.6619L48 72.6604ZM74.8648 83.4291C71.9228 83.4116 69.4878 85.8305 69.4645 88.7959C69.4412 91.7351 71.8732 94.1788 74.8328 94.1919C77.788 94.205 80.2186 91.789 80.2302 88.828C80.2419 85.8742 77.8302 83.448 74.8648 83.4291Z" fill="#1D39DD"/>
<path d="M102.372 71.2237C101.287 70.3596 100.156 70.4558 99.0399 70.4601C97.7459 70.4645 96.4519 70.4834 95.1594 70.4456C94.8155 70.4354 94.4264 70.3129 94.1466 70.1162C91.9958 68.6109 89.8683 67.0751 87.7321 65.5494C86.6537 64.78 86.0271 64.9665 85.5317 66.2037C85.0377 67.4379 84.5481 68.6736 84.0264 69.9822C83.818 69.8685 83.6359 69.7752 83.4581 69.6732C81.5885 68.6051 79.7219 67.5326 77.8494 66.4674C76.7084 65.8175 75.9332 66.2678 75.923 67.5807C75.9157 68.5162 75.923 69.4517 75.923 70.4601H74.8767C73.4064 70.4601 71.9361 70.4368 70.4672 70.4718C69.9281 70.4849 69.6803 70.3698 69.574 69.784C69.335 68.4579 68.9969 67.1494 68.6895 65.7884C68.8614 65.7315 69.0173 65.6645 69.1805 65.6281C78.8796 63.4525 88.5787 61.2783 98.2778 59.1071C99.1244 58.9177 99.6607 59.1683 99.8311 59.9144C100.676 63.6128 101.497 67.3155 102.371 71.2222L102.372 71.2237ZM98.5736 65.0991C98.5852 63.3097 97.131 61.8423 95.3474 61.8437C93.5944 61.8437 92.1357 63.2907 92.1138 65.0481C92.092 66.8128 93.5798 68.3093 95.3532 68.3064C97.112 68.3035 98.5605 66.8609 98.5736 65.0991Z" fill="#1D39DD"/>
<path d="M71.1296 62.9861C69.8969 63.2674 68.6947 63.5384 67.4939 63.8153C66.4579 64.0543 66.1898 64.4754 66.4171 65.4925C66.7799 67.1144 67.1413 68.7362 67.5202 70.4309C67.2812 70.4426 67.0772 70.4601 66.8732 70.4601C62.0134 70.4615 57.1522 70.4572 52.2925 70.4703C51.8859 70.4703 51.5989 70.3552 51.3206 70.0608C50.6473 69.3497 49.9362 68.6736 49.2513 67.9741C48.6233 67.333 48.6087 66.7676 49.2368 66.1381C53.126 62.2401 57.0211 58.3464 60.9205 54.4586C61.5005 53.8801 62.0805 53.8422 62.624 54.3829C65.4466 57.1865 68.2531 60.0062 71.0626 62.8229C71.0874 62.8477 71.0918 62.8914 71.1282 62.9876L71.1296 62.9861ZM53.4379 68.4608C53.843 68.1752 54.2073 67.9872 54.4856 67.7118C57.1828 65.0364 59.8655 62.3464 62.5482 59.6579C62.7129 59.4932 62.8819 59.3184 62.9941 59.1173C63.2419 58.6743 63.1792 58.2357 62.8266 57.8787C62.4564 57.5027 62.0018 57.443 61.5413 57.7067C61.3417 57.8218 61.1712 57.9923 61.0051 58.1585C58.3297 60.828 55.6586 63.5005 52.9876 66.1745C52.836 66.326 52.6102 66.4747 52.5737 66.6568C52.5009 67.0138 52.4236 67.4437 52.5592 67.7497C52.6845 68.0324 53.0867 68.1927 53.4364 68.4623L53.4379 68.4608ZM65.1537 60.7595C65.008 60.8484 64.6743 60.9796 64.4397 61.2113C62.7246 62.9002 61.0269 64.6065 59.3278 66.3115C59.2054 66.4353 59.0845 66.5738 59.0072 66.7268C58.7799 67.1756 58.8353 67.6098 59.1909 67.9639C59.545 68.3151 59.9734 68.3967 60.4266 68.1563C60.5796 68.0747 60.7209 67.9595 60.8433 67.8371C62.5628 66.1235 64.2779 64.4084 65.9916 62.6889C66.1009 62.5796 66.2029 62.4528 66.2743 62.3173C66.6459 61.6076 66.149 60.7756 65.1537 60.7595Z" fill="#1D39DD"/>
<path d="M104.878 101.784C103.826 92.3063 102.774 82.8287 101.713 73.2739C101.964 73.3832 102.126 73.4444 102.28 73.5216C104.1 74.4309 105.916 75.3504 107.743 76.2451C108.09 76.4156 108.211 76.5745 108.156 76.9956C107.45 82.412 106.773 87.8313 106.086 93.2491C105.726 96.0936 105.361 98.9366 104.999 101.78C104.959 101.781 104.918 101.782 104.877 101.784H104.878Z" fill="#1D39DD"/>
<path d="M87.2061 67.8269C88.4082 68.6866 89.558 69.51 90.8316 70.4207H86.1831C86.5226 69.5624 86.8461 68.7391 87.2061 67.8269Z" fill="#1D39DD"/>
<path d="M80.2064 70.4382H78.1372V69.1296C78.8541 69.5362 79.5463 69.9282 80.237 70.3202C80.2268 70.3595 80.2166 70.3989 80.2064 70.4382Z" fill="#1D39DD"/>
<path d="M74.8705 85.5873C76.6293 85.5961 78.0836 87.0503 78.088 88.8033C78.0938 90.568 76.587 92.0675 74.8268 92.0485C73.0388 92.0296 71.6049 90.5534 71.6282 88.7582C71.6515 86.9877 73.0927 85.5771 74.8705 85.5859V85.5873Z" fill="#1D39DD"/>
<path d="M95.4274 64.0134C95.9943 64.0615 96.4504 64.57 96.4183 65.1223C96.3848 65.711 95.8559 66.1773 95.273 66.1321C94.6697 66.0855 94.2471 65.5769 94.3039 64.9678C94.3579 64.3908 94.8577 63.9667 95.4274 64.0148V64.0134Z" fill="#1D39DD"/>
<defs>
<filter id="filter0_d_553_2" x="0" y="0" width="157" height="157" filterUnits="userSpaceOnUse" color-interpolation-filters="sRGB">
<feFlood flood-opacity="0" result="BackgroundImageFix"/>
<feColorMatrix in="SourceAlpha" type="matrix" values="0 0 0 0 0 0 0 0 0 0 0 0 0 0 0 0 0 0 127 0" result="hardAlpha"/>
<feOffset/>
<feGaussianBlur stdDeviation="5.5"/>
<feComposite in2="hardAlpha" operator="out"/>
<feColorMatrix type="matrix" values="0 0 0 0 0.113725 0 0 0 0 0.223529 0 0 0 0 0.866667 0 0 0 0.15 0"/>
<feBlend mode="normal" in2="BackgroundImageFix" result="effect1_dropShadow_553_2"/>
<feBlend mode="normal" in="SourceGraphic" in2="effect1_dropShadow_553_2" result="shape"/>
</filter>
</defs>
</svg>
