<svg width="26" height="26" viewBox="0 0 26 26" fill="none" xmlns="http://www.w3.org/2000/svg">
<rect width="26" height="26" rx="13" fill="#1D39DD"/>
<path d="M16.3523 7C16.4455 7.0224 16.5392 7.04224 16.6312 7.06747C17.4292 7.28605 17.9963 8.01718 17.9977 8.85207C18.0016 11.2102 17.9997 13.5683 17.9988 15.9267C17.9988 16.2125 17.8007 16.4205 17.5356 16.4208C17.2668 16.4208 17.0717 16.2105 17.0715 15.9156C17.0709 13.5847 17.0715 11.2538 17.0709 8.92323C17.0709 8.41039 16.7634 8.03221 16.2793 7.94971C16.2075 7.93752 16.1331 7.93809 16.0599 7.93809C14.394 7.93752 12.7284 7.93809 11.0625 7.93638C10.9862 7.93638 10.9065 7.93015 10.8347 7.90718C10.6593 7.85077 10.5372 7.67642 10.5297 7.49073C10.5218 7.30079 10.6248 7.12757 10.7945 7.04649C10.8296 7.02948 10.8652 7.01531 10.9003 7C12.7177 7 14.5349 7 16.3523 7Z" fill="white"/>
<path d="M8.00055 13.9485C8.00055 12.8979 7.99943 11.8473 8.00083 10.7966C8.00195 9.87272 8.61197 9.11607 9.5051 8.93379C9.62548 8.90912 9.75062 8.89977 9.87352 8.89977C11.3388 8.8975 12.8043 8.89665 14.2696 8.89892C15.3247 8.90033 16.142 9.72786 16.1429 10.7961C16.1446 12.8973 16.1446 14.9986 16.1429 17.0999C16.142 18.1678 15.3249 18.9962 14.2702 18.9982C12.8049 19.0007 11.3394 19.0007 9.87408 18.9982C8.81905 18.9965 8.00251 18.1678 8.00083 17.1004C7.99915 16.0498 8.00055 14.9992 8.00055 13.9485ZM15.2155 13.9517C15.2155 12.9129 15.2158 11.8739 15.2155 10.8352C15.2152 10.2325 14.8241 9.83615 14.2295 9.83587C12.7914 9.8353 11.3531 9.8353 9.91505 9.83587C9.32019 9.83587 8.92876 10.2325 8.92876 10.8346C8.92848 12.9084 8.92876 14.9822 8.92876 17.0556C8.92876 17.6663 9.31822 18.0609 9.92038 18.0612C11.3548 18.0615 12.7889 18.0615 14.2233 18.0612C14.8255 18.0612 15.2155 17.666 15.2155 17.0562C15.2158 16.0212 15.2155 14.9864 15.2155 13.9514V13.9517Z" fill="white"/>
</svg>
