<svg width="30" height="30" viewBox="0 0 30 30" fill="none" xmlns="http://www.w3.org/2000/svg">
<circle cx="15" cy="15" r="15" fill="#1D39DD"/>
<path d="M14.3779 11.058C14.3098 11.1204 14.2707 11.1546 14.2335 11.1907C13.1937 12.1882 12.1534 13.1849 11.1152 14.1835C10.9457 14.3466 10.7538 14.4345 10.5095 14.3909C10.0577 14.3097 9.84906 13.8059 10.1223 13.4509C10.1599 13.402 10.2053 13.3588 10.25 13.316C11.6621 11.9597 13.0742 10.6042 14.4872 9.24904C14.8337 8.91655 15.1692 8.91692 15.5172 9.25055C16.9298 10.6057 18.3415 11.962 19.7556 13.316C19.9326 13.4854 20.0371 13.6722 19.9878 13.9186C19.9036 14.339 19.3974 14.5412 19.0294 14.2988C18.9656 14.2568 18.9096 14.203 18.8544 14.1501C17.8247 13.1631 16.7959 12.175 15.7666 11.1877C15.7294 11.152 15.6907 11.1182 15.6237 11.0569V11.25C15.6237 14.2635 15.6237 17.2774 15.6225 20.2909C15.6225 20.3841 15.6225 20.4806 15.5975 20.5693C15.5157 20.8597 15.2322 21.031 14.912 20.9953C14.6211 20.9626 14.3944 20.7222 14.3799 20.4295C14.3768 20.3687 14.3779 20.3078 14.3779 20.2469C14.3779 17.2518 14.3779 14.2571 14.3779 11.262C14.3779 11.2072 14.3779 11.152 14.3779 11.058Z" fill="white"/>
</svg>
