<svg width="30" height="30" viewBox="0 0 30 30" fill="none" xmlns="http://www.w3.org/2000/svg">
<rect width="30" height="30" rx="15" fill="#D9DEFF"/>
<path d="M12.3162 18.7557C12.4275 18.7716 12.4901 18.782 12.5527 18.7891C14.2915 18.9961 16.0301 19.2041 17.7685 19.4089C18.0524 19.4423 18.2909 19.5549 18.4616 19.8186C18.7767 20.3067 18.5231 20.8931 17.9867 20.9105C17.9129 20.9129 17.8372 20.9036 17.7626 20.8947C15.3997 20.6148 13.0375 20.3343 10.6749 20.0527C10.0954 19.9838 9.81012 19.6677 9.7994 19.0818C9.75685 16.7033 9.71593 14.3246 9.67109 11.9455C9.66548 11.6478 9.73631 11.4049 9.98924 11.2606C10.4207 11.0145 11.0246 11.3347 11.1305 11.8686C11.1488 11.9613 11.1504 12.0556 11.1521 12.1485C11.1838 13.8817 11.214 15.6149 11.245 17.348C11.2462 17.4106 11.2502 17.4733 11.2548 17.5837L11.4201 17.4343C13.9992 15.1023 16.5788 12.77 19.1589 10.4392C19.2387 10.3671 19.3213 10.2923 19.4185 10.2473C19.7367 10.0996 20.1247 10.2339 20.3667 10.563C20.5863 10.8622 20.5735 11.2617 20.3353 11.5018C20.2859 11.5518 20.2328 11.5978 20.1807 11.6449C17.6173 13.9626 15.0542 16.2801 12.4908 18.5978C12.4438 18.6403 12.3966 18.683 12.3162 18.7557Z" fill="#1D39DD"/>
</svg>
