<svg width="17" height="23" viewBox="0 0 17 23" fill="none" xmlns="http://www.w3.org/2000/svg">
<path d="M12.3286 0.833916C12.5953 0.967288 12.619 1.23837 12.6738 1.48831C12.9099 2.5645 12.833 3.60329 12.24 4.54719C11.6265 5.52363 10.7336 6.12164 9.64828 6.40844C9.41056 6.47133 9.28512 6.54778 9.28986 6.82211C9.29566 7.16693 9.24822 7.51283 9.24664 7.85819C9.24084 9.12793 9.24453 10.3977 9.24453 11.6674V11.9586C9.50755 11.6213 9.73631 11.3356 9.95347 11.0412C9.98984 10.9914 9.98404 10.9035 9.98615 10.833C10.013 10.0176 10.0599 9.20546 10.2713 8.41336C10.4874 7.60391 10.858 6.90127 11.5796 6.4491C12.1051 6.12001 12.6896 5.96441 13.2926 5.90802C13.9062 5.85056 14.5239 5.83483 15.1406 5.81315C15.4131 5.80339 15.5549 5.93839 15.5512 6.2176C15.5359 7.28566 15.4948 8.35156 15.129 9.37137C14.7722 10.3652 14.0954 10.993 13.1034 11.2684C12.3243 11.4847 11.5274 11.527 10.7267 11.5276C10.5802 11.5276 10.4832 11.572 10.3899 11.6913C9.99459 12.1987 9.60559 12.7106 9.36998 13.321C9.30145 13.4983 9.25138 13.6962 9.25033 13.8849C9.24137 15.5152 9.24506 17.1455 9.24558 18.7763C9.24558 18.8045 9.25085 18.8327 9.25665 18.8896C9.30198 18.8457 9.33624 18.8186 9.36365 18.785C9.77795 18.2769 10.1949 17.7711 10.6013 17.2566C10.6693 17.1704 10.7225 17.0462 10.7278 16.9367C10.7652 16.1788 10.839 15.429 11.0667 14.7008C11.471 13.4078 12.3222 12.5989 13.5799 12.2313C14.4506 11.9765 15.3467 11.925 16.2459 11.9217C16.5032 11.9206 16.6587 12.0616 16.6634 12.3083C16.6808 13.1985 16.627 14.0806 16.3435 14.9329C15.907 16.2449 15.0046 17.0245 13.7201 17.3688C12.9827 17.5667 12.23 17.635 11.4705 17.6367C11.3165 17.6367 11.2132 17.6914 11.1094 17.8074C10.4189 18.58 9.78533 19.3938 9.31516 20.3312C9.28406 20.3936 9.24874 20.4635 9.24769 20.5307C9.24242 21.0854 9.24453 21.6405 9.24453 22.2315H9.49859C11.3292 22.2315 13.1598 22.2315 14.9904 22.2326C15.0811 22.2326 15.1722 22.2402 15.2618 22.2543C15.4637 22.2862 15.5465 22.4305 15.5465 22.6218C15.5465 22.8165 15.45 22.9515 15.255 22.9878C15.1801 23.0019 15.1016 22.9997 15.0247 22.9997C10.9217 22.9997 6.81831 22.9997 2.7154 22.9997C2.63844 22.9997 2.5599 23.003 2.48506 22.9883C2.29319 22.9509 2.19094 22.8208 2.18988 22.624C2.18883 22.431 2.27527 22.289 2.47452 22.2553C2.57045 22.2391 2.66954 22.2331 2.76705 22.2331C4.58342 22.232 6.40032 22.232 8.21669 22.232C8.3005 22.232 8.38431 22.232 8.49816 22.232C8.49816 22.1507 8.49816 22.0819 8.49816 22.0125C8.49816 20.9157 8.5008 19.8194 8.49394 18.7226C8.49342 18.6088 8.45178 18.4841 8.3959 18.3838C8.00902 17.686 7.46664 17.1216 6.89685 16.5843C6.83887 16.5296 6.73555 16.5068 6.65227 16.5024C5.83106 16.4618 5.01933 16.3712 4.22658 16.1289C2.16089 15.4984 0.928545 14.0822 0.515302 11.9233C0.400922 11.3259 0.379838 10.7083 0.335562 10.0984C0.311843 9.76877 0.453105 9.62564 0.767254 9.62889C1.85571 9.64028 2.93889 9.69829 3.99466 10.0073C5.49003 10.4454 6.48782 11.4132 6.9659 12.9399C7.25211 13.854 7.36122 14.7963 7.36649 15.7521C7.36754 15.9321 7.41498 16.0687 7.55255 16.1837C7.89411 16.4694 8.22882 16.7638 8.56616 17.0544L8.49816 17.1492V16.9221C8.49816 15.5152 8.48077 14.1082 8.50607 12.7019C8.51714 12.0784 8.34319 11.5384 8.00796 11.0412C7.8045 10.7398 7.57469 10.4568 7.36069 10.1624C7.27899 10.0502 7.18253 10.0041 7.04285 9.99865C6.42404 9.97425 5.81366 9.88967 5.23597 9.64299C4.33516 9.2586 3.80016 8.54999 3.53556 7.60174C3.34001 6.90073 3.31787 6.18019 3.30311 5.45911C3.29837 5.22165 3.42856 5.05412 3.65205 5.05195C4.56287 5.0449 5.46315 5.11701 6.27013 5.61634C6.94481 6.03381 7.34698 6.67085 7.51776 7.44126C7.63847 7.9856 7.68749 8.54945 7.73387 9.10733C7.75285 9.33558 7.80134 9.51396 7.95947 9.67986C8.14184 9.87178 8.29628 10.0924 8.49922 10.3462V10.0811C8.49922 9.3307 8.49025 8.58035 8.5029 7.83054C8.50976 7.41307 8.54033 6.99506 8.58302 6.57977C8.60622 6.35694 8.57881 6.16989 8.47023 5.9682C7.678 4.49677 8.07965 2.8242 9.42848 1.87324C10.197 1.33162 11.0577 1.05349 11.9601 0.88C12.0139 0.869699 12.0661 0.849097 12.1193 0.833374C12.1894 0.833374 12.2595 0.833374 12.3296 0.833374L12.3286 0.833916ZM6.30281 15.7217C6.29227 15.6811 6.29227 15.6653 6.28489 15.655C5.65185 14.7426 4.94554 13.9131 3.93141 13.4224C3.836 13.3763 3.72742 13.2608 3.71108 13.1627C3.69158 13.0467 3.73375 12.8862 3.80754 12.7946C3.92297 12.6515 4.09533 12.6769 4.25346 12.7539C4.83696 13.0391 5.33981 13.4398 5.78731 13.9136C6.04875 14.1907 6.29227 14.4851 6.56636 14.7968C6.56161 14.6981 6.56741 14.6276 6.55371 14.561C6.45988 14.1034 6.39452 13.6366 6.25906 13.1925C5.95071 12.183 5.34666 11.4197 4.39156 10.9762C3.66522 10.6389 2.89303 10.5121 2.10766 10.4459C1.76873 10.4177 1.42823 10.408 1.03449 10.3868C1.11619 10.9539 1.16099 11.4798 1.27168 11.99C1.53839 13.2148 2.1435 14.2156 3.21456 14.8711C4.16017 15.4501 5.20856 15.6464 6.30228 15.7206L6.30281 15.7217ZM15.9223 12.691C15.1749 12.7013 14.4702 12.7409 13.7823 12.9383C13.0375 13.1524 12.4277 13.5547 12.0413 14.2655C11.7693 14.7659 11.6244 15.3064 11.5948 15.8968C11.656 15.8654 11.6829 15.8058 11.7235 15.7591C12.1156 15.3075 12.5752 14.9459 13.1097 14.69C13.1962 14.6482 13.2958 14.6087 13.388 14.6114C13.5588 14.6168 13.6774 14.7198 13.7111 14.8971C13.7501 15.1026 13.6616 15.2506 13.4808 15.333C12.9753 15.5623 12.5694 15.9229 12.2158 16.349C12.0882 16.5024 11.9765 16.6689 11.832 16.8635C12.551 16.8408 13.203 16.7611 13.8329 16.5453C14.3199 16.3783 14.7548 16.1218 15.0842 15.7065C15.7779 14.8326 15.8743 13.7835 15.9228 12.691H15.9223ZM10.7636 10.0263L10.8153 10.0512C10.9513 9.90702 11.0815 9.7563 11.2243 9.61968C11.5833 9.27649 11.9433 8.9333 12.3133 8.60258C12.5036 8.43234 12.7212 8.44915 12.8557 8.61234C13.0069 8.79613 12.9859 8.99836 12.7903 9.18107C12.5362 9.41853 12.2727 9.6457 12.026 9.8913C11.7582 10.158 11.5052 10.4405 11.2085 10.7555C11.8594 10.7224 12.4435 10.6894 13.0117 10.5045C13.758 10.2611 14.2614 9.7563 14.4717 8.99294C14.6177 8.46324 14.6836 7.90915 14.7664 7.36319C14.8043 7.11109 14.7975 6.85193 14.8112 6.58627C14.0769 6.58519 13.378 6.6047 12.6944 6.78904C12.1567 6.9338 11.6897 7.2 11.375 7.68632C10.9165 8.39601 10.8274 9.20926 10.7636 10.0268V10.0263ZM9.54076 5.6261C11.5479 5.05466 12.4219 3.30184 11.9127 1.61029C11.4299 1.77186 10.9318 1.89656 10.469 2.10366C9.71891 2.43926 9.12277 2.95974 8.8861 3.81039C8.7654 4.24413 8.78226 4.67731 8.93143 5.12189C9.11908 4.77978 9.29091 4.45936 9.47012 4.14328C9.5708 3.966 9.71259 3.86515 9.92448 3.93834C10.1886 4.02997 10.2581 4.26256 10.1063 4.55153C9.91816 4.9099 9.72946 5.26827 9.54076 5.62664V5.6261ZM6.48782 9.18269C6.43037 9.11492 6.3998 9.07697 6.36764 9.04065C6.12781 8.76848 5.88377 8.50011 5.64974 8.22252C5.5069 8.05282 5.52007 7.85331 5.66555 7.69825C5.80154 7.55349 5.98128 7.54644 6.15575 7.69012C6.23165 7.75247 6.29596 7.83054 6.3629 7.90373C6.54791 8.10541 6.73134 8.30873 6.93849 8.53698C6.79564 6.64537 5.9544 5.8511 4.02997 5.83212C4.06213 6.18344 4.08374 6.53368 4.12801 6.88067C4.29089 8.17264 4.93078 9.0195 6.48782 9.18324V9.18269Z" fill="#12C802"/>
</svg>
