<svg width="26" height="26" viewBox="0 0 26 26" fill="none" xmlns="http://www.w3.org/2000/svg">
<rect width="26" height="26" rx="13" fill="#D9DEFF"/>
<path d="M15.9513 7.00216C16.4969 7.00216 17.0429 6.99651 17.5886 7.00349C18.3139 7.01281 18.8632 7.4886 18.9844 8.20361C18.998 8.28513 18.9987 8.36964 18.9987 8.45249C18.9997 9.48558 18.9973 10.5187 19 11.5514C19.002 12.342 18.7208 13.0127 18.1632 13.5697C16.5039 15.227 14.8453 16.8853 13.1847 18.5412C12.5692 19.1554 11.7211 19.1534 11.1069 18.5389C9.89046 17.3221 8.67504 16.1047 7.45994 14.8869C6.84707 14.2727 6.84641 13.423 7.45961 12.8085C9.1099 11.1548 10.7625 9.50255 12.4121 7.84727C12.9761 7.28131 13.6519 6.99584 14.4517 7.00116C14.9515 7.00449 15.4515 7.00183 15.9513 7.00183V7.00216ZM18.0657 10.0472C18.0657 9.52684 18.066 9.00613 18.0657 8.48576C18.0654 8.1181 17.8814 7.93644 17.5104 7.93644C16.5066 7.93644 15.5031 7.94143 14.4993 7.93444C13.926 7.93045 13.4512 8.12908 13.046 8.537C11.4173 10.177 9.78199 11.81 8.14901 13.4453C7.86486 13.7301 7.8632 13.9656 8.14767 14.2505C9.35378 15.4589 10.5602 16.6673 11.767 17.8751C12.0195 18.128 12.2741 18.1276 12.5283 17.8738C14.1845 16.2202 15.8395 14.5652 17.4968 12.9129C17.8801 12.531 18.0684 12.0735 18.0664 11.5341C18.0647 11.0387 18.066 10.543 18.066 10.0475L18.0657 10.0472Z" fill="#1D39DD"/>
<path d="M15.6069 8.94785C16.3844 8.95051 17.0143 9.58468 17.0086 10.3582C17.0026 11.1351 16.3708 11.759 15.5926 11.756C14.8266 11.753 14.1965 11.1182 14.1971 10.3499C14.1978 9.57436 14.8306 8.94486 15.6072 8.94752L15.6069 8.94785ZM16.0707 10.3569C16.0733 10.0997 15.8654 9.88545 15.6089 9.88213C15.351 9.87847 15.1397 10.0851 15.1361 10.3446C15.1324 10.6038 15.3374 10.8151 15.5966 10.8191C15.8538 10.8227 16.0677 10.6144 16.0707 10.3573V10.3569Z" fill="#1D39DD"/>
</svg>
