<svg width="14" height="19" viewBox="0 0 14 19" fill="none" xmlns="http://www.w3.org/2000/svg">
<path d="M10.2819 0.000464634C10.5105 0.114784 10.5308 0.34714 10.5778 0.561372C10.7802 1.48382 10.7143 2.37421 10.206 3.18327C9.68011 4.02022 8.91477 4.5328 7.98452 4.77863C7.78076 4.83254 7.67323 4.89806 7.6773 5.1332C7.68227 5.42876 7.64161 5.72525 7.64025 6.02127C7.63528 7.10962 7.63845 8.19798 7.63845 9.28633V9.53588C7.86389 9.24683 8.05997 9.00193 8.24611 8.74959C8.27729 8.70684 8.27232 8.63155 8.27412 8.57114C8.29716 7.87221 8.33737 7.17608 8.51854 6.49713C8.70378 5.80332 9.02139 5.20105 9.6399 4.81348C10.0903 4.5314 10.5914 4.39803 11.1082 4.3497C11.6341 4.30044 12.1636 4.28696 12.6922 4.26838C12.9258 4.26001 13.0473 4.37572 13.0442 4.61505C13.0311 5.53053 12.9958 6.44416 12.6823 7.31828C12.3764 8.1701 11.7963 8.70823 10.946 8.9443C10.2783 9.12972 9.59517 9.16597 8.9089 9.16644C8.7833 9.16644 8.70017 9.20454 8.6202 9.30678C8.28135 9.74175 7.94793 10.1804 7.74597 10.7037C7.68724 10.8557 7.64432 11.0253 7.64342 11.187C7.63574 12.5844 7.6389 13.9818 7.63935 15.3796C7.63935 15.4038 7.64387 15.428 7.64884 15.4768C7.68769 15.4391 7.71706 15.4159 7.74055 15.3871C8.09566 14.9516 8.45303 14.5181 8.80137 14.077C8.85965 14.0032 8.90528 13.8967 8.9098 13.8029C8.94188 13.1532 9.00513 12.5105 9.2003 11.8864C9.54683 10.7781 10.2765 10.0847 11.3545 9.76963C12.1008 9.55122 12.8689 9.50707 13.6397 9.50428C13.8601 9.50335 13.9934 9.62418 13.9975 9.83562C14.0124 10.5987 13.9663 11.3548 13.7232 12.0853C13.3491 13.2099 12.5757 13.8781 11.4746 14.1732C10.8426 14.3429 10.1974 14.4014 9.54638 14.4028C9.41446 14.4028 9.3259 14.4497 9.2369 14.5492C8.64505 15.2114 8.10199 15.9089 7.69899 16.7124C7.67233 16.7659 7.64206 16.8258 7.64116 16.8834C7.63664 17.3588 7.63845 17.8347 7.63845 18.3412H7.85621C9.4253 18.3412 10.9944 18.3412 12.5635 18.3422C12.6412 18.3422 12.7193 18.3487 12.7961 18.3608C12.9692 18.3882 13.0401 18.5118 13.0401 18.6758C13.0401 18.8427 12.9574 18.9584 12.7903 18.9895C12.7261 19.0016 12.6588 18.9997 12.5928 18.9997C9.07606 18.9997 5.55883 18.9997 2.04205 18.9997C1.97609 18.9997 1.90877 19.0025 1.84461 18.99C1.68016 18.9579 1.59251 18.8464 1.59161 18.6777C1.5907 18.5123 1.6648 18.3905 1.83558 18.3617C1.9178 18.3477 2.00274 18.3426 2.08632 18.3426C3.64321 18.3417 5.20055 18.3417 6.75744 18.3417C6.82928 18.3417 6.90111 18.3417 6.9987 18.3417C6.9987 18.272 6.9987 18.213 6.9987 18.1535C6.9987 17.2134 7.00096 16.2737 6.99509 15.3336C6.99464 15.236 6.95894 15.1292 6.91105 15.0432C6.57944 14.4451 6.11454 13.9613 5.62615 13.5008C5.57645 13.4539 5.4879 13.4343 5.41651 13.4306C4.71262 13.3958 4.01685 13.3182 3.33735 13.1104C1.56676 12.57 0.51046 11.3562 0.156252 9.50568C0.0582126 8.99356 0.0401406 8.46426 0.00218971 7.94146C-0.0181411 7.65891 0.10294 7.53623 0.372211 7.53902C1.30517 7.54878 2.23361 7.5985 3.13856 7.86339C4.4203 8.23887 5.27555 9.06838 5.68533 10.377C5.93066 11.1605 6.02418 11.9682 6.0287 12.7875C6.0296 12.9418 6.07026 13.0589 6.18818 13.1574C6.48094 13.4023 6.76783 13.6546 7.05698 13.9037L6.9987 13.985V13.7903C6.9987 12.5844 6.98379 11.3785 7.00548 10.173C7.01497 9.63858 6.86587 9.17573 6.57853 8.74959C6.40414 8.49121 6.20716 8.24863 6.02373 7.99629C5.9537 7.9001 5.87102 7.8606 5.75129 7.85595C5.22089 7.83504 4.69771 7.76254 4.20254 7.5511C3.43042 7.22162 2.97185 6.61424 2.74504 5.80146C2.57743 5.20059 2.55845 4.58299 2.5458 3.96492C2.54174 3.76138 2.65333 3.61778 2.84489 3.61592C3.62559 3.60988 4.39726 3.67169 5.08896 4.09969C5.66726 4.45751 6.01198 5.00355 6.15836 5.66391C6.26182 6.13048 6.30384 6.61378 6.3436 7.09196C6.35986 7.28761 6.40143 7.4405 6.53697 7.5827C6.69329 7.74721 6.82566 7.93635 6.99961 8.15383V7.92659C6.99961 7.28343 6.99193 6.64026 7.00277 5.99757C7.00864 5.63974 7.03485 5.28145 7.07144 4.92548C7.09132 4.73448 7.06783 4.57416 6.97476 4.40128C6.29571 3.14006 6.63998 1.70642 7.79612 0.891317C8.45484 0.42707 9.19262 0.188673 9.9661 0.0399651C10.0122 0.0311355 10.0569 0.0134766 10.1025 0C10.1626 0 10.2227 0 10.2828 0L10.2819 0.000464634ZM5.11697 12.7614C5.10794 12.7266 5.10794 12.7131 5.10161 12.7043C4.559 11.9222 3.9536 11.2112 3.08434 10.7906C3.00257 10.7511 2.9095 10.6521 2.89549 10.568C2.87878 10.4686 2.91492 10.331 2.97817 10.2525C3.07711 10.1298 3.22485 10.1516 3.36039 10.2176C3.86053 10.4621 4.29154 10.8055 4.67512 11.2116C4.89921 11.4491 5.10794 11.7014 5.34287 11.9686C5.3388 11.8841 5.34377 11.8237 5.33203 11.7665C5.25161 11.3743 5.19559 10.9742 5.07947 10.5936C4.81517 9.72827 4.29741 9.07396 3.47876 8.69383C2.85619 8.40477 2.1943 8.29603 1.52113 8.23934C1.23062 8.21517 0.938763 8.20681 0.601271 8.18868C0.6713 8.67477 0.709702 9.12554 0.80458 9.56284C1.03319 10.6126 1.55185 11.4705 2.4699 12.0323C3.28042 12.5286 4.17904 12.6969 5.11652 12.7605L5.11697 12.7614ZM13.3622 10.1637C12.7216 10.1725 12.1176 10.2065 11.528 10.3756C10.8896 10.5592 10.3668 10.904 10.0357 11.5132C9.80255 11.9422 9.67831 12.4055 9.653 12.9115C9.70541 12.8846 9.72845 12.8335 9.76324 12.7935C10.0994 12.4064 10.4933 12.0964 10.9515 11.8771C11.0256 11.8413 11.111 11.8074 11.19 11.8097C11.3364 11.8144 11.4381 11.9027 11.467 12.0546C11.5004 12.2307 11.4245 12.3576 11.2695 12.4282C10.8363 12.6248 10.4884 12.9339 10.1852 13.2991C10.0759 13.4306 9.98011 13.5733 9.85631 13.7401C10.4726 13.7206 11.0314 13.6523 11.5713 13.4673C11.9888 13.3242 12.3615 13.1044 12.6439 12.7484C13.2385 11.9993 13.3211 11.1001 13.3627 10.1637H13.3622ZM8.94052 7.87965L8.9848 7.90103C9.10136 7.77741 9.21295 7.64822 9.33539 7.53112C9.64306 7.23695 9.95164 6.94279 10.2688 6.65932C10.4319 6.5134 10.6185 6.5278 10.7337 6.66768C10.8634 6.82522 10.8453 6.99856 10.6777 7.15517C10.4599 7.35871 10.234 7.55342 10.0226 7.76394C9.79306 7.99258 9.5762 8.23469 9.32184 8.50469C9.87981 8.47634 10.3804 8.44799 10.8674 8.28953C11.5072 8.08087 11.9386 7.64822 12.1189 6.99391C12.2441 6.53989 12.3005 6.06495 12.3715 5.59699C12.404 5.3809 12.3981 5.15876 12.4099 4.93106C11.7805 4.93013 11.1814 4.94686 10.5955 5.10486C10.1346 5.22893 9.73433 5.45711 9.46461 5.87395C9.07154 6.48226 8.99519 7.17933 8.94052 7.88012V7.87965ZM7.89236 4.10805C9.61279 3.61824 10.3619 2.11583 9.92544 0.665932C9.51159 0.804416 9.08465 0.911299 8.68797 1.08882C8.04506 1.37648 7.53408 1.8226 7.33122 2.55173C7.22776 2.9235 7.24222 3.29481 7.37008 3.67587C7.53092 3.38264 7.6782 3.10799 7.83181 2.83706C7.91811 2.6851 8.03964 2.59867 8.22126 2.6614C8.44761 2.73994 8.50725 2.9393 8.37713 3.18699C8.21584 3.49417 8.0541 3.80134 7.89236 4.10852V4.10805ZM5.27555 7.15656C5.22631 7.09847 5.2001 7.06594 5.17254 7.0348C4.96698 6.80152 4.75779 6.57149 4.5572 6.33355C4.43476 6.1881 4.44606 6.01709 4.57075 5.88418C4.68731 5.7601 4.84138 5.75406 4.99092 5.87721C5.05598 5.93065 5.1111 5.99757 5.16848 6.0603C5.32706 6.23318 5.48428 6.40744 5.66184 6.60309C5.5394 4.98171 4.81834 4.30091 3.16883 4.28464C3.19639 4.58577 3.21491 4.88598 3.25286 5.18339C3.39247 6.2908 3.94095 7.01668 5.27555 7.15702V7.15656Z" fill="#1D98DD"/>
</svg>
