<svg width="19" height="16" viewBox="0 0 19 16" fill="none" xmlns="http://www.w3.org/2000/svg">
    <path
        d="M0 5.85427C0.068101 5.85198 0.135742 5.84741 0.203843 5.84741C5.47615 5.84741 10.7485 5.84741 16.0208 5.84741H16.2518C16.4289 7.42599 16.6038 8.98674 16.7828 10.5804C16.7045 10.5804 16.6341 10.5804 16.5642 10.5804C14.8313 10.5804 13.0989 10.5804 11.366 10.5818C11.2744 10.5818 11.1782 10.5854 11.0917 10.6124C10.9385 10.6599 10.8653 10.7784 10.8722 10.937C10.8791 11.0961 10.9638 11.2049 11.1207 11.2396C11.21 11.2593 11.3048 11.2607 11.3973 11.2607C13.1301 11.2616 14.8626 11.2616 16.5955 11.2616C16.6751 11.2616 16.7547 11.2616 16.8559 11.2616C16.8937 11.5811 16.9318 11.8902 16.9664 12.1992C17.0887 13.2923 17.2084 14.3854 17.3326 15.4784C17.3759 15.8597 17.2544 16.0001 16.8637 16.0001C11.7644 16.0001 6.66562 16.0001 1.56632 16.0001C1.23594 16.0001 1.12321 15.9095 1.08778 15.5936C0.929026 14.1833 0.774419 12.7725 0.618431 11.3617C0.61567 11.3384 0.618431 11.3146 0.618431 11.262H0.837918C2.41575 11.262 3.99403 11.262 5.57186 11.2611C5.6579 11.2611 5.74625 11.2584 5.83 11.241C5.98875 11.2081 6.07663 11.0988 6.0863 10.9429C6.09642 10.7784 6.01682 10.6558 5.85347 10.6087C5.77202 10.5854 5.68275 10.5813 5.59717 10.5813C3.98805 10.5799 2.37939 10.5804 0.770278 10.5804C0.696655 10.5804 0.623492 10.5804 0.531924 10.5804C0.490511 10.2243 0.449098 9.87866 0.410907 9.53305C0.283908 8.39106 0.158289 7.24907 0.0312897 6.10708C0.0271484 6.07142 0.0110433 6.03713 0.000460065 6.00239C0.000460065 5.95302 0.000460065 5.9041 0.000460065 5.85473L0 5.85427ZM8.48318 9.23269C7.55415 9.22721 6.78525 9.98609 6.77789 10.9164C6.77053 11.8385 7.5385 12.6052 8.47305 12.6093C9.40622 12.6134 10.1737 11.8554 10.1774 10.9265C10.1811 9.99981 9.41957 9.23864 8.48318 9.23269Z"
        fill="#1D39DD" />
    <path
        d="M17.1699 5.40357C16.8271 5.13247 16.47 5.16264 16.1175 5.16401C15.7089 5.16539 15.3003 5.17133 14.8922 5.15944C14.7836 5.15624 14.6607 5.11784 14.5724 5.05612C13.8932 4.58388 13.2214 4.10203 12.5468 3.62338C12.2063 3.382 12.0085 3.44052 11.852 3.82864C11.696 4.21586 11.5414 4.60353 11.3767 5.01406C11.3109 4.97841 11.2534 4.94915 11.1972 4.91715C10.6069 4.58205 10.0174 4.24558 9.42614 3.91139C9.06585 3.7075 8.82106 3.84876 8.81784 4.26066C8.81554 4.55416 8.81784 4.84766 8.81784 5.16401H8.48745C8.02317 5.16401 7.55889 5.1567 7.09506 5.16767C6.92481 5.17179 6.84659 5.13567 6.813 4.95189C6.73753 4.53587 6.63078 4.12534 6.53369 3.69835C6.58799 3.68053 6.63722 3.6595 6.68876 3.64807C9.75146 2.96552 12.8142 2.28344 15.8769 1.60227C16.1442 1.54284 16.3135 1.62147 16.3674 1.85554C16.6343 3.01581 16.8933 4.17746 17.1694 5.40311L17.1699 5.40357ZM15.9703 3.48212C15.974 2.92072 15.5147 2.46036 14.9515 2.46082C14.398 2.46082 13.9374 2.91478 13.9305 3.46612C13.9236 4.01974 14.3934 4.48924 14.9534 4.48833C15.5088 4.48742 15.9661 4.03483 15.9703 3.48212Z"
        fill="#1D39DD" />
    <path
        d="M7.30328 2.8192C6.914 2.90743 6.53439 2.99246 6.15523 3.07932C5.82807 3.1543 5.7434 3.28642 5.81518 3.60551C5.92976 4.11434 6.04388 4.62316 6.16351 5.15483C6.08805 5.15849 6.02363 5.16398 5.95921 5.16398C4.42464 5.16443 2.8896 5.16306 1.35503 5.16718C1.22665 5.16718 1.136 5.13106 1.04812 5.03871C0.83553 4.81562 0.610981 4.6035 0.394714 4.38406C0.196393 4.18291 0.191791 4.00553 0.390113 3.80804C1.61823 2.58513 2.84819 1.36359 4.07953 0.143888C4.26267 -0.037605 4.4458 -0.0494913 4.61744 0.120116C5.50873 0.999694 6.39496 1.8843 7.28212 2.76799C7.28994 2.77577 7.29132 2.78948 7.30282 2.81965L7.30328 2.8192ZM1.7167 4.53675C1.84462 4.44715 1.95966 4.38817 2.04754 4.30177C2.89927 3.46242 3.74639 2.6185 4.59351 1.77504C4.6455 1.72338 4.69888 1.66852 4.73431 1.60543C4.81254 1.46646 4.79275 1.32885 4.6814 1.21685C4.56452 1.0989 4.42095 1.08015 4.27555 1.1629C4.21251 1.19902 4.15867 1.2525 4.10622 1.30462C3.2614 2.14214 2.41796 2.98057 1.57452 3.81947C1.52666 3.86701 1.45534 3.91364 1.44384 3.97079C1.42083 4.08279 1.39644 4.21765 1.43924 4.31366C1.47881 4.40235 1.60581 4.45263 1.71624 4.53721L1.7167 4.53675ZM5.41624 2.12065C5.37023 2.14854 5.26486 2.18969 5.19077 2.26237C4.64919 2.79222 4.11312 3.32756 3.57659 3.86244C3.53794 3.9013 3.49975 3.94473 3.47536 3.99273C3.40358 4.13354 3.42107 4.26977 3.53334 4.38086C3.64516 4.49104 3.78044 4.51664 3.92354 4.44121C3.97186 4.4156 4.01649 4.37949 4.05514 4.34109C4.59811 3.80346 5.1397 3.26539 5.68082 2.72594C5.71533 2.69165 5.74754 2.65188 5.77009 2.60936C5.88743 2.38672 5.73052 2.12568 5.41624 2.12065Z"
        fill="#1D39DD" />
    <path
        d="M17.9609 14.9911C17.6286 12.0177 17.2964 9.04436 16.9614 6.04675C17.0406 6.08104 17.0916 6.10024 17.1404 6.12447C17.7151 6.40974 18.2885 6.69821 18.8655 6.97891C18.975 7.03239 19.0132 7.08222 18.9957 7.21434C18.773 8.91361 18.559 10.6138 18.3423 12.3135C18.2287 13.2059 18.1132 14.0978 17.999 14.9897C17.9862 14.9902 17.9733 14.9907 17.9604 14.9911H17.9609Z"
        fill="#1D39DD" />
    <path
        d="M12.3801 4.33789C12.7598 4.60762 13.1228 4.86591 13.525 5.15164H12.0571C12.1643 4.88237 12.2665 4.62407 12.3801 4.33789Z"
        fill="#1D39DD" />
    <path
        d="M10.169 5.15711H9.51562V4.74658C9.74201 4.87413 9.96058 4.99711 10.1787 5.12008C10.1755 5.13243 10.1722 5.14477 10.169 5.15711Z"
        fill="#1D39DD" />
    <path
        d="M8.48631 9.90989C9.0417 9.91264 9.50092 10.3689 9.5023 10.9188C9.50414 11.4725 9.02835 11.9429 8.4725 11.9369C7.90791 11.931 7.45513 11.4679 7.46249 10.9047C7.46985 10.3492 7.92493 9.90669 8.48631 9.90944V9.90989Z"
        fill="#1D39DD" />
    <path
        d="M14.9775 3.14146C15.1565 3.15654 15.3005 3.31609 15.2904 3.48936C15.2798 3.67405 15.1128 3.82034 14.9287 3.80617C14.7382 3.79154 14.6048 3.63199 14.6227 3.4409C14.6397 3.25986 14.7976 3.12683 14.9775 3.14191V3.14146Z"
        fill="#1D39DD" />
</svg>