<svg width="92" height="92" viewBox="0 0 92 92" fill="none" xmlns="http://www.w3.org/2000/svg">
<path d="M21.5622 0.00158691V5.37793H5.42101V21.4927H0V0.00158691H21.5622Z" fill="black"/>
<path d="M91.9989 21.5638H86.6185V5.41244H70.4367V0.00158691H91.9989V21.5638Z" fill="black"/>
<path d="M91.9987 91.9984H70.4953V86.6403H86.5594V70.4362H91.9987V91.9984Z" fill="black"/>
<path d="M70.2417 48.5044V53.8828H80.9842V80.8112H54.1106V70.1194H48.7058V64.6761L48.6794 64.7004H54.0192V59.2855H48.6794L48.7058 59.3099V53.9396H64.8775V48.5044L64.8511 48.5288H70.266L70.2396 48.5044H70.2417ZM75.6119 59.3687H59.5194V75.4145H75.6119V59.3687Z" fill="black"/>
<path d="M32.5078 64.6761V70.0565H27.1801V75.3983H37.8841V70.1316H43.2523V75.441H48.6388V80.8173H21.7835V75.4552H16.3401L16.3665 75.4816C16.3665 73.6766 16.3665 71.8736 16.3665 70.0687L16.3401 70.093H21.682V59.2876H16.3401L16.3665 59.3119V53.9336H21.6921V48.5714H11.0288V43.1849H37.8983C37.8983 44.9655 37.8983 46.7482 37.8983 48.5288L37.9247 48.5044H27.1923V64.7005H32.5341L32.5078 64.6761Z" fill="black"/>
<path d="M43.3131 21.5496H37.9368V37.6847H11.0084V10.8253H37.8698V16.1895H43.3131L43.2867 16.1631C43.2867 17.966 43.2867 19.771 43.2867 21.5739L43.3131 21.5475V21.5496ZM16.4152 16.2138V32.2738H32.4732V16.2118H16.4152V16.2138Z" fill="black"/>
<path d="M64.8793 43.1382V37.7578H54.1348V10.8293H80.9637V37.6948H70.2415V43.1382L70.2679 43.1138H64.8529L64.8793 43.1382ZM75.6056 16.2361H59.5456V32.2961H75.6056V16.2361Z" fill="black"/>
<path d="M0.0648804 70.4808H5.36813V86.5753H21.5073V91.9537H0.0648804V70.4788V70.4808Z" fill="black"/>
<path d="M64.8793 48.5044C57.6838 48.5044 50.4883 48.5023 43.2928 48.5003L43.3192 48.5267V37.8004H48.6752V43.1382C54.1388 43.1382 59.5091 43.1382 64.8793 43.1382L64.8529 43.1138V48.5287L64.8793 48.5044Z" fill="black"/>
<path d="M43.289 21.574H48.6308V32.284H43.3133C43.3133 28.6985 43.3133 25.123 43.3133 21.5476L43.2869 21.574H43.289Z" fill="black"/>
<path d="M70.2416 43.1381H80.972V48.5043H70.2416L70.268 48.5287V43.1138L70.2416 43.1381Z" fill="black"/>
<path d="M37.8983 53.8949V64.676C36.0751 64.676 34.2924 64.676 32.5078 64.676L32.5341 64.7004V53.9193H37.9247L37.8983 53.8949Z" fill="black"/>
<path d="M16.3648 70.0646H11.0229V59.3078H16.3648L16.3384 59.2834V70.0889L16.3648 70.0646Z" fill="black"/>
<path d="M43.3133 16.1895V10.8497H48.6328V16.1652C46.8481 16.1652 45.0675 16.1652 43.2869 16.1652L43.3133 16.1916V16.1895Z" fill="black"/>
<path d="M43.2928 48.5004V53.895C41.4675 53.895 39.6828 53.895 37.8982 53.895L37.9246 53.9193V48.5044L37.8982 48.5288C39.7052 48.5288 41.5101 48.5288 43.3171 48.5268L43.2907 48.5004H43.2928Z" fill="black"/>
<path d="M48.7078 64.6761H43.366V59.3099H48.7078L48.6814 59.2855V64.7004L48.7078 64.6761Z" fill="black"/>
<path d="M16.3404 75.4531V80.7929H11.0209V75.4774C12.8055 75.4774 14.5862 75.4774 16.3668 75.4774L16.3404 75.451V75.4531Z" fill="black"/>
<path d="M64.9061 70.0159V64.735H70.185V70.0159H64.9061Z" fill="black"/>
<path d="M27.0889 21.6227V26.9097H21.8101V21.6227H27.0889Z" fill="black"/>
<path d="M64.8998 26.8853V21.6166H70.2112V26.8853H64.8998Z" fill="black"/>
</svg>
