<svg width="32" height="32" viewBox="0 0 32 32" fill="none" xmlns="http://www.w3.org/2000/svg">
<circle cx="16" cy="16" r="16" fill="#1D39DD"/>
<path d="M14.717 20.8442V20.5631C14.717 16.1337 14.717 11.7049 14.717 7.27545C14.717 6.50087 15.3037 5.97302 16.1265 6.00107C16.7838 6.02338 17.3426 6.50789 17.3861 7.09631C17.394 7.19959 17.3904 7.30286 17.3904 7.40614C17.3904 11.7954 17.3904 16.1853 17.3904 20.5746V20.9022C17.5039 20.8066 17.5745 20.7505 17.6409 20.6912C18.6536 19.7853 19.662 18.8756 20.6804 17.9748C21.3469 17.3851 22.3775 17.4986 22.8214 18.1992C23.1304 18.6875 23.0355 19.2568 22.5602 19.6833C21.5617 20.5797 20.5598 21.4722 19.5585 22.366C18.7278 23.108 17.8985 23.852 17.065 24.5922C16.4541 25.1347 15.6655 25.1372 15.0539 24.5922C13.1819 22.9244 11.3143 21.2535 9.44522 19.5832C9.0627 19.2415 8.90427 18.8373 9.05842 18.3649C9.20115 17.927 9.53229 17.6407 10.0318 17.5343C10.5428 17.4253 10.9753 17.5674 11.3428 17.897C12.3798 18.8265 13.4196 19.7528 14.4573 20.681C14.5258 20.7422 14.5829 20.813 14.6457 20.8787L14.717 20.8442Z" fill="white"/>
</svg>
