<svg width="25" height="25" viewBox="0 0 25 25" fill="none" xmlns="http://www.w3.org/2000/svg">
<rect y="25" width="25" height="25" rx="12.5" transform="rotate(-90 0 25)" fill="#1D39DD"/>
<path d="M15.6585 12.4424C15.6086 12.3835 15.5812 12.3496 15.5523 12.3174C14.753 11.4175 13.9543 10.5174 13.1542 9.61886C13.0235 9.47216 12.9531 9.30615 12.988 9.09474C13.053 8.70376 13.4567 8.52318 13.7412 8.75967C13.7803 8.79219 13.815 8.83149 13.8493 8.87011C14.936 10.0922 16.0222 11.3142 17.1081 12.5369C17.3745 12.8368 17.3742 13.1271 17.1069 13.4283C16.021 14.6507 14.9342 15.8724 13.8493 17.0962C13.7135 17.2493 13.5639 17.3398 13.3664 17.2971C13.0295 17.2242 12.8676 16.7862 13.0618 16.4677C13.0955 16.4125 13.1385 16.364 13.181 16.3163C13.9718 15.4252 14.7635 14.5348 15.5547 13.6441C15.5833 13.612 15.6104 13.5784 15.6594 13.5205L15.5047 13.5205C13.0901 13.5205 10.6751 13.5205 8.26043 13.5195C8.18577 13.5195 8.10841 13.5195 8.03736 13.4978C7.80465 13.427 7.66738 13.1817 7.69598 12.9045C7.72217 12.6528 7.91484 12.4566 8.14935 12.4441C8.19812 12.4414 8.24689 12.4424 8.29565 12.4424C10.6956 12.4424 13.0952 12.4424 15.4951 12.4424C15.539 12.4424 15.5833 12.4424 15.6585 12.4424Z" fill="white"/>
</svg>
