<svg width="17" height="23" viewBox="0 0 17 23" fill="none" xmlns="http://www.w3.org/2000/svg">
<path d="M12.3291 0.833886C12.5958 0.967258 12.6195 1.23834 12.6743 1.48828C12.9104 2.56447 12.8335 3.60326 12.2405 4.54716C11.627 5.5236 10.7341 6.12161 9.64877 6.40841C9.41105 6.4713 9.2856 6.54775 9.29035 6.82208C9.29615 7.1669 9.24871 7.5128 9.24712 7.85816C9.24133 9.1279 9.24502 10.3977 9.24502 11.6674V11.9585C9.50804 11.6213 9.7368 11.3356 9.95396 11.0412C9.99033 10.9913 9.98453 10.9035 9.98664 10.833C10.0135 10.0176 10.0604 9.20543 10.2718 8.41333C10.4879 7.60388 10.8585 6.90124 11.58 6.44907C12.1056 6.11998 12.6901 5.96438 13.2931 5.90799C13.9066 5.85052 14.5244 5.8348 15.1411 5.81312C15.4136 5.80336 15.5554 5.93836 15.5517 6.21757C15.5364 7.28563 15.4953 8.35153 15.1295 9.37134C14.7727 10.3651 14.0959 10.9929 13.1039 11.2684C12.3248 11.4847 11.5279 11.527 10.7272 11.5275C10.5807 11.5275 10.4837 11.572 10.3904 11.6913C9.99507 12.1987 9.60608 12.7105 9.37047 13.321C9.30194 13.4983 9.25187 13.6962 9.25082 13.8848C9.24185 15.5151 9.24554 17.1454 9.24607 18.7762C9.24607 18.8044 9.25134 18.8326 9.25714 18.8896C9.30247 18.8456 9.33673 18.8185 9.36414 18.7849C9.77844 18.2769 10.1954 17.7711 10.6018 17.2566C10.6698 17.1704 10.723 17.0462 10.7283 16.9367C10.7657 16.1787 10.8395 15.4289 11.0672 14.7008C11.4715 13.4077 12.3227 12.5988 13.5804 12.2312C14.4511 11.9764 15.3472 11.9249 16.2464 11.9217C16.5036 11.9206 16.6591 12.0616 16.6639 12.3082C16.6813 13.1985 16.6275 14.0806 16.3439 14.9328C15.9075 16.2449 15.0051 17.0245 13.7206 17.3688C12.9832 17.5667 12.2305 17.635 11.4709 17.6366C11.317 17.6366 11.2137 17.6914 11.1099 17.8074C10.4194 18.58 9.78582 19.3938 9.31565 20.3312C9.28455 20.3935 9.24923 20.4635 9.24818 20.5307C9.24291 21.0853 9.24502 21.6405 9.24502 22.2315H9.49908C11.3297 22.2315 13.1603 22.2315 14.9909 22.2325C15.0815 22.2325 15.1727 22.2401 15.2623 22.2542C15.4642 22.2862 15.547 22.4304 15.547 22.6218C15.547 22.8165 15.4505 22.9515 15.2555 22.9878C15.1806 23.0019 15.1021 22.9997 15.0251 22.9997C10.9222 22.9997 6.8188 22.9997 2.71589 22.9997C2.63893 22.9997 2.56039 23.003 2.48555 22.9883C2.29368 22.9509 2.19143 22.8208 2.19037 22.624C2.18932 22.431 2.27576 22.2889 2.475 22.2553C2.57094 22.239 2.67003 22.2331 2.76754 22.2331C4.58391 22.232 6.40081 22.232 8.21718 22.232C8.30099 22.232 8.3848 22.232 8.49865 22.232C8.49865 22.1507 8.49865 22.0818 8.49865 22.0124C8.49865 20.9156 8.50128 19.8194 8.49443 18.7226C8.49391 18.6087 8.45226 18.484 8.39639 18.3837C8.0095 17.686 7.46712 17.1216 6.89733 16.5843C6.83935 16.5295 6.73604 16.5068 6.65276 16.5024C5.83155 16.4618 5.01982 16.3712 4.22707 16.1289C2.16138 15.4983 0.929033 14.0822 0.51579 11.9233C0.401411 11.3258 0.380327 10.7083 0.336051 10.0984C0.312331 9.76874 0.453593 9.62561 0.767742 9.62886C1.85619 9.64025 2.93937 9.69826 3.99515 10.0073C5.49052 10.4454 6.48831 11.4131 6.96638 12.9399C7.2526 13.8539 7.3617 14.7962 7.36698 15.7521C7.36803 15.9321 7.41547 16.0687 7.55304 16.1836C7.8946 16.4693 8.2293 16.7637 8.56664 17.0543L8.49865 17.1492V16.922C8.49865 15.5151 8.48126 14.1082 8.50656 12.7018C8.51762 12.0784 8.34368 11.5384 8.00845 11.0412C7.80499 10.7398 7.57518 10.4567 7.36118 10.1624C7.27948 10.0501 7.18302 10.004 7.04334 9.99862C6.42453 9.97422 5.81415 9.88964 5.23646 9.64296C4.33565 9.25856 3.80065 8.54996 3.53605 7.60171C3.34049 6.9007 3.31836 6.18016 3.3036 5.45908C3.29885 5.22162 3.42905 5.05409 3.65253 5.05192C4.56336 5.04487 5.46363 5.11698 6.27062 5.61631C6.9453 6.03378 7.34747 6.67082 7.51825 7.44123C7.63896 7.98557 7.68798 8.54942 7.73436 9.1073C7.75334 9.33555 7.80183 9.51392 7.95996 9.67983C8.14233 9.87175 8.29677 10.0924 8.4997 10.3461V10.081C8.4997 9.33067 8.49074 8.58032 8.50339 7.83051C8.51025 7.41304 8.54082 6.99503 8.58351 6.57973C8.6067 6.35691 8.5793 6.16986 8.47071 5.96817C7.67849 4.49674 8.08014 2.82417 9.42897 1.87321C10.1975 1.33159 11.0582 1.05346 11.9606 0.879969C12.0144 0.869668 12.0666 0.849066 12.1198 0.833344C12.1899 0.833344 12.26 0.833344 12.3301 0.833344L12.3291 0.833886ZM6.3033 15.7217C6.29276 15.681 6.29276 15.6653 6.28538 15.655C5.65233 14.7426 4.94603 13.913 3.9319 13.4224C3.83649 13.3763 3.72791 13.2608 3.71157 13.1627C3.69207 13.0467 3.73423 12.8862 3.80803 12.7946C3.92346 12.6514 4.09582 12.6769 4.25395 12.7539C4.83745 13.0391 5.34029 13.4397 5.7878 13.9136C6.04924 14.1906 6.29276 14.485 6.56685 14.7968C6.5621 14.6981 6.5679 14.6276 6.5542 14.5609C6.46037 14.1033 6.39501 13.6365 6.25955 13.1925C5.9512 12.183 5.34715 11.4196 4.39205 10.9761C3.66571 10.6389 2.89352 10.512 2.10815 10.4459C1.76922 10.4177 1.42872 10.408 1.03498 10.3868C1.11668 10.9539 1.16148 11.4798 1.27217 11.99C1.53888 13.2147 2.14399 14.2156 3.21505 14.871C4.16065 15.4501 5.20905 15.6463 6.30277 15.7206L6.3033 15.7217ZM15.9228 12.691C15.1754 12.7013 14.4706 12.7409 13.7828 12.9382C13.038 13.1524 12.4281 13.5547 12.0418 14.2654C11.7698 14.7659 11.6249 15.3064 11.5953 15.8968C11.6565 15.8654 11.6834 15.8057 11.7239 15.7591C12.1161 15.3075 12.5757 14.9459 13.1102 14.69C13.1967 14.6482 13.2963 14.6086 13.3885 14.6113C13.5593 14.6168 13.6779 14.7198 13.7116 14.8971C13.7506 15.1025 13.6621 15.2506 13.4813 15.333C12.9758 15.5623 12.5699 15.9228 12.2163 16.349C12.0887 16.5024 11.977 16.6689 11.8325 16.8635C12.5515 16.8407 13.2035 16.761 13.8334 16.5452C14.3204 16.3783 14.7553 16.1218 15.0847 15.7065C15.7784 14.8326 15.8748 13.7835 15.9233 12.691H15.9228ZM10.7641 10.0263L10.8158 10.0512C10.9518 9.90699 11.0819 9.75627 11.2248 9.61965C11.5837 9.27646 11.9437 8.93327 12.3138 8.60255C12.504 8.43231 12.7217 8.44912 12.8561 8.61231C13.0074 8.7961 12.9863 8.99833 12.7908 9.18104C12.5367 9.4185 12.2732 9.64567 12.0265 9.89127C11.7587 10.158 11.5057 10.4405 11.209 10.7555C11.8599 10.7224 12.444 10.6893 13.0122 10.5045C13.7585 10.261 14.2619 9.75627 14.4722 8.99291C14.6182 8.46321 14.6841 7.90912 14.7669 7.36316C14.8048 7.11105 14.798 6.8519 14.8117 6.58624C14.0774 6.58516 13.3785 6.60467 12.6949 6.78901C12.1572 6.93377 11.6902 7.19997 11.3755 7.68629C10.917 8.39598 10.8279 9.20923 10.7641 10.0268V10.0263ZM9.54125 5.62607C11.5484 5.05463 12.4223 3.30181 11.9132 1.61026C11.4304 1.77183 10.9322 1.89653 10.4695 2.10363C9.7194 2.43923 9.12326 2.95971 8.88659 3.81036C8.76589 4.24409 8.78275 4.67728 8.93192 5.12186C9.11957 4.77975 9.2914 4.45933 9.47061 4.14325C9.57129 3.96596 9.71308 3.86512 9.92497 3.93831C10.189 4.02994 10.2586 4.26253 10.1068 4.5515C9.91864 4.90987 9.72995 5.26824 9.54125 5.62661V5.62607ZM6.48831 9.18266C6.43085 9.11489 6.40028 9.07694 6.36813 9.04062C6.1283 8.76845 5.88426 8.50008 5.65023 8.22249C5.50738 8.05279 5.52056 7.85328 5.66604 7.69822C5.80203 7.55346 5.98177 7.54641 6.15624 7.69009C6.23214 7.75244 6.29645 7.83051 6.36339 7.9037C6.5484 8.10538 6.73183 8.30869 6.93897 8.53695C6.79613 6.64534 5.95489 5.85107 4.03046 5.83209C4.06262 6.18341 4.08423 6.53365 4.1285 6.88064C4.29137 8.17261 4.93127 9.01947 6.48831 9.1832V9.18266Z" fill="#12C802"/>
</svg>
