<svg width="26" height="26" viewBox="0 0 26 26" fill="none" xmlns="http://www.w3.org/2000/svg">
<rect width="26" height="26" rx="13" fill="#D9DEFF"/>
<path d="M16.1434 7C16.379 7.07369 16.6267 7.12066 16.8482 7.22546C17.6018 7.58214 18.0675 8.43789 17.992 9.28424C17.9134 10.1679 17.3099 10.922 16.4895 11.139C15.7061 11.3462 15.0271 11.1431 14.4564 10.558C14.4297 10.5307 14.409 10.497 14.3841 10.4641C14.2742 10.5316 14.18 10.5897 14.0859 10.6476C13.0856 11.2632 12.0861 11.8799 11.084 12.4929C11.0025 12.5428 10.9747 12.5827 11.0106 12.6834C11.1555 13.0924 11.1638 13.5078 11.0295 13.9381C12.1134 14.5062 13.194 15.0722 14.267 15.6344C14.4087 15.4958 14.5316 15.3484 14.6794 15.2354C15.3781 14.6999 16.1357 14.6186 16.903 15.0373C17.6612 15.4506 18.0259 16.1334 17.9917 17.0132C17.9501 18.0892 17.0697 18.9596 16.01 18.9986C14.9548 19.0377 14.0308 18.2377 13.8948 17.1738C13.8595 16.8976 13.8773 16.6287 13.9545 16.3633C13.9723 16.3019 13.9674 16.2661 13.9048 16.2335C12.8583 15.6881 11.8132 15.14 10.7678 14.5928C10.7612 14.5893 10.7535 14.5884 10.7354 14.5831C10.2765 15.1873 9.67305 15.5014 8.91433 15.4532C8.39062 15.4201 7.9378 15.2025 7.5791 14.8106C6.8023 13.9622 6.80804 12.7148 7.59001 11.8802C8.33467 11.0853 9.71466 10.9508 10.6134 11.9642C11.7452 11.2673 12.8784 10.5698 14.017 9.86873C13.9189 9.58896 13.8652 9.30802 13.8776 9.01533C13.9198 8.01104 14.6699 7.1644 15.6435 7.02349C15.6731 7.01908 15.7018 7.00822 15.7308 7.00029C15.8682 7.00029 16.0057 7.00029 16.1431 7.00029L16.1434 7Z" fill="#1D39DD"/>
</svg>
