<svg width="20" height="13" viewBox="0 0 20 13" fill="none" xmlns="http://www.w3.org/2000/svg">
<path d="M0 8.14868C0.123135 8.00649 0.226442 7.84787 0.373056 7.72513C1.95137 6.40951 3.53647 5.09995 5.11895 3.78779C5.26452 3.66721 5.4174 3.56521 5.63393 3.54922C6.03777 3.51983 6.3816 3.72988 6.40978 4.06397C6.439 4.41275 6.42543 4.76413 6.42856 5.11421C6.43065 5.37224 6.42856 5.63026 6.42856 5.90989C6.5303 5.90989 6.61274 5.90989 6.69518 5.90989C9.16831 5.90989 11.642 5.9181 14.1151 5.90427C14.7313 5.90082 15.0386 6.20422 15.0005 6.64679C14.9796 6.89228 14.9968 7.14036 14.9968 7.35776C16.0576 6.4791 17.1298 5.59093 18.1806 4.72048C17.146 3.86256 16.0691 2.96964 14.9968 2.08061C14.9968 2.31875 14.9968 2.58542 14.9968 2.85208C14.9958 3.30892 14.7219 3.54144 14.1714 3.54187C12.3359 3.5436 10.5003 3.54403 8.66481 3.54187C8.09244 3.54101 7.73921 3.18661 7.88948 2.77774C7.98444 2.51843 8.25471 2.36024 8.6189 2.35938C9.43231 2.35722 10.2463 2.35851 11.0597 2.35851C11.8147 2.35851 12.5696 2.35851 13.3246 2.35851H13.5558C13.5599 2.29152 13.5662 2.2349 13.5662 2.17785C13.5672 1.6657 13.562 1.15354 13.5683 0.641384C13.5735 0.239007 13.8876 -0.0363039 14.3238 0.00389065C14.4913 0.0190176 14.6838 0.0898983 14.8028 0.187143C16.463 1.549 18.1143 2.91864 19.7636 4.28958C20.0881 4.5597 20.0761 4.90071 19.7422 5.17775C18.1102 6.53226 16.4745 7.88461 14.8424 9.23912C14.6024 9.43837 14.3269 9.51357 14.0086 9.40682C13.6945 9.30179 13.5683 9.08483 13.5672 8.81384C13.5651 8.30168 13.5672 7.78953 13.5662 7.27737C13.5662 7.21989 13.5605 7.16241 13.5563 7.08807H13.31C10.8171 7.08807 8.3241 7.08807 5.83115 7.08807C5.264 7.08807 4.99895 6.86505 4.99843 6.39266C4.99843 6.17699 4.99843 5.96132 4.99843 5.74566V5.61686C3.921 6.51065 2.84827 7.40098 1.79067 8.27834C2.83783 9.14577 3.91317 10.0365 4.98695 10.926C4.98851 10.9126 4.99791 10.8746 4.99843 10.8365C4.99999 10.5776 4.99477 10.3188 5.00051 10.0603C5.00834 9.7314 5.26348 9.50276 5.65636 9.46516C5.72054 9.45911 5.78628 9.45695 5.85098 9.45695C7.66669 9.45695 9.48293 9.45565 11.2986 9.45825C11.4207 9.45825 11.548 9.46776 11.6633 9.49844C11.9785 9.58186 12.1773 9.85285 12.1345 10.1174C12.0891 10.3983 11.8261 10.6105 11.4865 10.6373C11.4155 10.6429 11.3435 10.6412 11.272 10.6412C9.73598 10.6412 8.19993 10.6412 6.66387 10.6412H6.42908C6.42908 10.7129 6.42908 10.7704 6.42908 10.8275C6.42908 11.3288 6.43274 11.8302 6.42804 12.3315C6.42387 12.7538 6.10716 13.0403 5.66367 12.9954C5.49618 12.9781 5.30626 12.9055 5.18678 12.8074C3.53125 11.449 1.88511 10.0832 0.241052 8.71487C0.139309 8.62929 0.079307 8.51044 0 8.40757C0 8.32113 0 8.23512 0 8.14868Z" fill="#1D39DD"/>
</svg>
